<?xml version="1.0" encoding="utf-8" ?>
<svg xmlns="http://www.w3.org/2000/svg" xmlns:xlink="http://www.w3.org/1999/xlink" width="1024" height="1024">
	<path fill="#FEFEFE" d="M0 0L1024 0L1024 1024L0 1024L0 0Z"/>
	<path fill="#D51F1E" d="M511.954 49.1162C525.78 49.2456 539.699 49.5127 553.475 50.7434C666.175 60.8106 766.736 110.468 845.806 190.927C907.498 253.703 951.207 338.404 967.456 424.847C973.328 456.084 975.487 487.896 975.172 519.648C973.967 640.97 922.819 759.289 836.236 844.074C831.244 848.962 826.046 853.666 820.775 858.252C821.41 848.659 822.688 839.088 823.707 829.529C824.682 820.381 825.368 811.096 826.912 802.026C844.284 782.476 860.433 761.771 874.331 739.584C921.993 663.493 943.505 573.433 938.263 484.063C931.581 370.14 879.857 267.151 794.74 191.633C719.019 124.451 613.237 84.3018 512.011 84.4028C512.054 72.6443 512.216 60.8725 511.954 49.1162Z"/>
	<path fill="#020202" d="M754.942 908.722C743.873 915.891 731.471 921.758 719.649 927.563C651.439 961.061 582.18 975.374 506.409 975.212C386.623 974.955 267.353 923.651 183.062 838.83C113.861 769.194 67.4131 677.525 53.0668 580.355C49.4244 555.684 48.1026 530.57 48.1908 505.652C48.6264 382.617 101.246 266.978 188.183 181.04C273.417 96.7868 392.158 48.4237 511.954 49.1162C512.216 60.8725 512.054 72.6443 512.011 84.4028C474.214 84.3995 435.249 89.3317 398.917 99.8778C286.385 132.542 193.359 204.085 136.797 307.254C83.0632 405.267 70.3187 522.6 101.756 629.799C133.954 739.591 209.474 832.434 309.958 887.093C393.478 932.524 490.975 948.263 584.634 932.078C600.813 929.283 616.904 925.915 632.732 921.525C641.35 919.135 652.165 914.431 660.801 913.412C666.351 912.756 678.896 915.709 685.558 916.228C708.328 918.004 733.1 915.192 754.942 908.722Z"/>
	<path fill="#020202" d="M512.108 110.782C576.354 108.651 645.875 127.809 702.043 158.506C718.248 167.361 733.548 177.801 748.502 188.605C760.527 197.294 772.59 205.914 783.43 216.08C791.849 223.976 800.439 231.966 808.234 240.485C873.941 312.29 909.951 403.358 912.861 500.423C915.173 577.513 894.95 655.775 855.021 721.834C848.24 733.053 841.075 744.725 832.766 754.879C836.544 731.169 838.297 706.372 840.974 682.453C842.15 671.948 842.643 660.043 845.755 649.947C855.094 645.43 860.782 639.746 864.229 629.897C867.83 619.609 870.914 606.784 865.915 596.549C858.538 581.441 831.437 564.672 816.266 557.177C815.23 561.259 814.069 565.349 813.236 569.476C825.015 574.583 851.376 590.053 856.058 602.639C858.439 609.04 854.878 622.898 851.988 629.117C849.629 634.195 845.757 637.45 840.467 639.224C838.583 639.857 836.659 640.394 834.725 640.852C831.915 659.236 829.862 677.731 827.61 696.191L816.356 791.981L811.261 834.743C810.21 843.631 809.57 852.771 807.733 861.532C805.935 870.105 795.333 878.699 788.309 883.108C754.224 904.504 697.678 909.637 659.041 900.628C642.59 896.793 605.578 883.744 596.01 870.08C594.604 868.073 594.274 864.406 593.934 862.004C590.656 838.841 589.078 815.216 586.815 791.922C584.378 766.833 581.276 741.744 579.404 716.609C568.174 721.328 557.218 725.992 545.443 729.238C512.271 738.383 478.821 733.357 447.437 720.55C410.729 705.571 379.286 681.62 350.556 654.665C349.141 656.682 349.397 661.063 349.253 663.503C348.158 682.142 349.201 700.983 352.439 719.374C361.813 772.601 388.705 824.865 433.688 856.398C451.038 868.561 467.986 875.785 487.959 882.602C493.273 884.416 498.675 886.602 504.092 888.012C533.884 888.801 561.282 885.396 590.481 879.94C598.03 887.16 606.621 892.404 615.697 897.432C606.698 899.138 597.826 901.469 588.798 903.091C567.089 906.992 545.121 909.151 523.088 910.011C418.663 914.086 315.515 873.172 239.249 802.393C162.484 731.151 116.841 629.074 113.077 524.624C109.33 420.688 150.459 313.417 221.344 237.495C284.053 170.329 371.576 127.062 462.298 114.408C478.84 112.101 495.436 111.362 512.108 110.782Z"/>
	<path fill="#D51F1E" d="M483.258 565.758C483.363 566.065 483.511 566.361 483.571 566.68C483.614 566.911 483.567 567.15 483.565 567.385C484.838 567.127 484.156 567.353 485.323 566.762C486.47 566.181 487.333 566.268 488.594 566.319C483.225 568.405 481.961 571.467 479.718 576.525C477.819 580.806 474.156 587.715 474.53 592.409C471.405 594.144 468.172 595.69 464.971 597.278C470.072 586.162 475.44 575.267 483.258 565.758Z"/>
	<path fill="#D4D2D2" d="M502.413 450.693C515.249 449.53 526.543 451.43 538.714 455.42C533.157 456.708 527.625 457.902 522.003 458.879C512.302 460.67 497.37 460.575 488.252 456.197C487.237 455.71 487.041 455.705 486.677 454.606C489.207 451.661 498.712 451.161 502.413 450.693Z"/>
	<path fill="#D4D2D2" d="M282.03 222.962C295.531 212.789 310.522 208.39 327.432 210.687C343.68 212.895 357.432 220.754 369.677 231.348C372.997 234.22 376.608 237.385 379.299 240.868C378.067 241.562 375.016 238.884 373.911 238.121C364.449 231.585 354.6 225.547 343.808 221.449C328.027 215.456 310.805 213.749 294.471 218.581C290.809 219.665 286.497 222.716 282.803 222.937C282.546 222.952 282.288 222.954 282.03 222.962Z"/>
	<path fill="#D4D2D2" d="M647.838 241.411C649.196 238.748 651.205 236.242 653.11 233.953C664.439 220.349 682.038 210.07 699.838 208.537C717.713 206.996 733.365 213.484 746.868 224.866C746.658 224.842 746.446 224.825 746.236 224.796C743.921 224.48 734.064 218.971 730.196 217.687C708.187 210.38 682.642 215.353 663.878 228.529C660.71 230.753 650.064 241.054 647.838 241.411Z"/>
	<path fill="#363636" d="M768.988 294.105C763.193 312.308 750.603 324.807 734.144 333.867C731.929 330.359 729.868 326.822 727.915 323.161C741.757 313.709 755.396 303.913 768.988 294.105Z"/>
	<path fill="#91908F" d="M710.501 606.435C721.383 606.671 732.656 607.18 743.361 609.223C743.025 615.416 743.361 623.984 742.153 629.837L741.34 628.746C732.382 624.511 720.021 622.662 710.235 621.903C710.351 616.749 710.511 611.591 710.501 606.435Z"/>
	<path fill="#91908F" d="M662.461 608.457C673.552 606.284 685.197 606.099 696.46 605.732L696.561 621.02C684.92 621.525 674.466 624.241 663.464 627.86C663.066 621.394 662.648 614.933 662.461 608.457Z"/>
	<path fill="#D51F1E" d="M483.258 565.758C488.913 557.764 496.195 550.417 506.231 548.667C519.375 546.374 533.743 552.207 544.185 559.839C550.826 564.693 556.413 570.701 562.037 576.66C555.266 576.428 548.569 576.332 541.795 576.489L542.995 575.936L542.859 575.007C540.764 572.383 537.236 570.242 534.304 568.615C519.745 560.534 503.994 561.817 488.594 566.319C487.333 566.268 486.47 566.181 485.323 566.762C484.156 567.353 484.838 567.127 483.565 567.385C483.567 567.15 483.614 566.911 483.571 566.68C483.511 566.361 483.363 566.065 483.258 565.758Z"/>
	<path fill="#F22625" d="M488.594 566.319C503.994 561.817 519.745 560.534 534.304 568.615C537.236 570.242 540.764 572.383 542.859 575.007L542.995 575.936L541.795 576.489C518.222 576.804 496.143 583.634 474.53 592.409C474.156 587.715 477.819 580.806 479.718 576.525C481.961 571.467 483.225 568.405 488.594 566.319Z"/>
	<path fill="#474747" d="M250.15 780.391C251.642 776.849 252.136 772.062 252.887 768.259C254.342 760.888 255.775 753.508 257.613 746.221C260.205 735.95 263 725.64 266.457 715.62C271.357 701.418 291.179 651.948 301.911 642.956L301.711 643.596C297.782 655.773 292.017 667.548 287.725 679.661C275.547 714.029 264.976 755.675 262.363 792C258.19 788.225 254.006 784.497 250.15 780.391Z"/>
	<path fill="#6D6C6D" d="M242.291 772.918C249.687 728.552 264.579 687.205 289.962 649.895C296.96 639.61 304.306 629.561 313.334 620.949C309.402 628.227 305.619 635.562 301.911 642.956C291.179 651.948 271.357 701.418 266.457 715.62C263 725.64 260.205 735.95 257.613 746.221C255.775 753.508 254.342 760.888 252.887 768.259C252.136 772.062 251.642 776.849 250.15 780.391L242.291 772.918Z"/>
	<path fill="#FEFEFE" d="M505.406 516.692C514.295 515.534 524.782 516.929 532.954 520.677C543.428 525.482 551.675 534.514 555.714 545.275C541.822 541.305 528.489 539.519 514.125 538.733C497.059 538.287 480.959 541.368 464.491 545.475C466.74 539.999 469.071 534.345 472.773 529.66C480.17 520.299 494.277 518.1 505.406 516.692Z"/>
	<path fill="#D4D2D2" d="M727.306 516.975C734.652 495.903 735.244 463.225 728.624 441.682C735.748 448.278 745.985 459.952 753.313 465.03C755.343 473.096 757.203 481.17 758.923 489.308C752.944 483.981 746.396 478.675 739.459 474.619C747.33 497.095 748.166 523.744 743.188 547.108C739.741 540.262 735.329 534.062 731.013 527.748C730.665 534.648 730.325 541.506 729.279 548.345C720.7 547.255 712.269 547.044 703.661 546.571C711.397 533.632 716.397 516.687 718.838 501.779C721.588 506.891 724.393 511.954 727.306 516.975Z"/>
	<path fill="#FEFEFE" d="M570.873 620.981C568.048 618.622 567.504 616.929 567.093 613.332C566.56 608.671 567.721 603.771 570.734 600.125C573.963 596.216 579.954 593.329 584.438 590.963C612.945 575.929 651.046 565.937 683.15 563.7C726.93 560.649 773.161 568.381 812.137 589.097C819.832 593.187 827.696 597.6 834.28 603.344C836.344 605.145 837.966 606.964 838.182 609.82C838.501 614.039 835.832 619.122 833.088 622.254C832.225 623.24 831.158 623.853 830.026 624.486C829.327 619.763 833.003 614.526 835.22 610.553C795.384 584.356 741.18 571.586 693.783 573.193C657.233 574.432 620.176 582.378 586.932 597.767C582.237 599.94 575.268 602.354 571.793 606.286C568.598 609.901 570.565 615.833 570.826 620.126L570.873 620.981Z"/>
	<path fill="#474747" d="M647.838 241.411C650.064 241.054 660.71 230.753 663.878 228.529C682.642 215.353 708.187 210.38 730.196 217.687C734.064 218.971 743.921 224.48 746.236 224.796C746.446 224.825 746.658 224.842 746.868 224.866C759.14 234.179 769.075 253.353 771.19 268.494C772.409 277.218 771.412 285.688 768.988 294.105C755.396 303.913 741.757 313.709 727.915 323.161C727.34 322.291 726.875 321.438 726.428 320.496C726.842 319.031 727.599 318.477 728.837 317.626C731.156 316.032 733.132 314.327 735.081 312.296C743.542 303.482 747.535 292.166 747.137 279.983C746.754 268.292 741.647 256.891 733.091 248.891C724.652 241.003 713.188 237.084 701.692 237.502C687.024 238.035 676.827 245.413 667.171 255.689C664.191 253.37 648.219 242.908 647.838 241.411Z"/>
	<path fill="#91908F" d="M570.873 620.981L570.826 620.126C570.565 615.833 568.598 609.901 571.793 606.286C575.268 602.354 582.237 599.94 586.932 597.767C620.176 582.378 657.233 574.432 693.783 573.193C741.18 571.586 795.384 584.356 835.22 610.553C833.003 614.526 829.327 619.763 830.026 624.486C828.517 624.535 827.509 624.116 826.145 623.491C820.782 621.035 815.615 617.892 810.379 615.154C801.789 610.663 792.946 606.608 783.873 603.184C763.838 595.622 741.8 591.783 720.485 590.463C679.462 587.922 638.898 592.997 600.9 609.048C596.109 611.072 575.759 622.113 573.965 622.268C572.436 622.401 572.045 621.852 570.873 620.981Z"/>
	<path fill="#363636" d="M282.03 222.962C282.288 222.954 282.546 222.952 282.803 222.937C286.497 222.716 290.809 219.665 294.471 218.581C310.805 213.749 328.027 215.456 343.808 221.449C354.6 225.547 364.449 231.585 373.911 238.121C375.016 238.884 378.067 241.562 379.299 240.868C379.31 240.91 379.311 240.955 379.331 240.994C379.369 241.066 379.424 241.127 379.47 241.194L379.117 241.942C370.679 246.237 362.923 252.309 354.842 257.282C351.319 253.35 347.206 249.64 342.791 246.734C333.432 240.571 321.724 237.486 310.639 239.921C299.773 242.307 290.269 249.542 284.332 258.86C278.003 268.793 275.9 280.74 278.572 292.22C281.397 304.355 289.113 313.434 299.541 319.877L292.599 330.719C280.082 325.165 267.353 315.311 259.439 304.073C251.872 293.328 251.368 283.323 253.645 270.648C256.816 252.998 266.969 233.331 282.03 222.962Z"/>
	<path fill="#D4D2D2" d="M335.649 639.432C340.43 644.695 345.502 649.667 350.556 654.665C349.141 656.682 349.397 661.063 349.253 663.503C348.158 682.142 349.201 700.983 352.439 719.374C361.813 772.601 388.705 824.865 433.688 856.398C451.038 868.561 467.986 875.785 487.959 882.602C493.273 884.416 498.675 886.602 504.092 888.012C459.095 888.438 413.664 878.404 372.077 861.527C361.991 857.434 352.177 852.674 342.352 847.999C320.427 789.601 320.982 699.548 335.649 639.432Z"/>
	<path fill="#D4D2D2" d="M281.032 400.621C284.832 389.255 288.572 377.939 293.429 366.972C312.434 324.062 343.315 285.338 382.842 259.631C382.761 259.875 382.687 260.123 382.598 260.365C381.827 262.453 375.476 268.453 373.483 270.83C365.058 280.878 356.445 290.651 349.029 301.493C335.565 321.179 323.855 342.177 317.348 365.244C314.262 376.183 312.465 387.492 309.197 398.372C303.988 415.71 297.249 432.422 296.57 450.776C296.056 464.673 299.005 478.488 304.171 491.339C325.513 544.432 374.902 585.532 426.699 607.474C461.356 622.155 496.569 629.322 534.096 630.491C538.376 630.624 548.548 631.584 552.348 630.268C552.517 630.21 552.672 630.118 552.834 630.043C557.84 636.545 563.752 642.643 572.296 643.827C572.493 648.134 573.183 652.475 573.726 656.751C518.279 668.564 461.682 665.446 409.408 642.336C358.85 619.984 311.621 579.671 291.331 527.206C287.379 532.514 283.539 537.879 279.772 543.32C274.086 521.895 273.841 495.539 278.073 473.921C272.069 479.329 266.179 484.863 260.269 490.372C268.429 452.424 280.085 428.781 300.496 395.909C294.182 398.024 287.551 399.306 281.032 400.621Z"/>
	<path fill="#FEFEFE" d="M663.464 627.86C674.466 624.241 684.92 621.525 696.561 621.02C697.256 629.325 697.028 637.776 697.107 646.111L697.529 685.984L699.448 799.916C699.89 823.433 699.446 847.329 701.353 870.77C703.93 848.455 703.654 825.349 704.562 802.896L708.543 678.579C709.089 659.689 709.362 640.782 710.235 621.903C720.021 622.662 732.382 624.511 741.34 628.746L742.153 629.837C739.703 686.966 738.345 744.139 737.335 801.309C736.971 821.925 735.915 842.528 735.915 863.149C735.969 866.359 735.902 869.466 735.602 872.663C734.499 873.121 733.387 873.561 732.251 873.933C714.121 879.858 675.636 879.76 658.485 871.032C655.579 864.151 654.329 856.332 652.851 849.037C648.257 826.358 645.649 803.594 642.925 780.647L627.845 646.049C634.935 640.777 642.388 636.883 650.636 633.747C652.006 648.605 652.46 663.564 653.66 678.443L665.148 811.176C666.826 829.525 667.958 847.945 670.29 866.229L670.45 865.989L670.13 865.079C672.787 861.894 663.689 652.087 663.464 627.86Z"/>
	<path fill="#91908F" d="M619.413 617.375C629.282 614.1 639.108 611.632 649.347 609.832C649.497 617.839 650.018 625.764 650.636 633.747C642.388 636.883 634.935 640.777 627.845 646.049L642.925 780.647C645.649 803.594 648.257 826.358 652.851 849.037C654.329 856.332 655.579 864.151 658.485 871.032C675.636 879.76 714.121 879.858 732.251 873.933C733.387 873.561 734.499 873.121 735.602 872.663C735.902 869.466 735.969 866.359 735.915 863.149L737.059 860.828C736.704 854.564 737.842 847.44 738.314 841.144L742.368 793.246L749.738 703.431C751.596 681.129 753.803 658.838 754.994 636.486C756.292 628.216 757.202 619.522 757.713 611.162C767.472 613.627 777.2 616.085 786.221 620.685C785.158 647.13 782.542 673.517 780.473 699.897L774.043 789.235L770.926 832.745C770.222 843.068 769.284 853.439 769.515 863.794C771.191 856.986 771.568 849.702 772.587 842.761L778.792 797.557C779.9 789.21 780.76 780.714 782.28 772.438C784.779 756.878 786.034 741.032 788.006 725.389C791.175 700.24 794.858 675.053 797.641 649.869L800.464 628.312C805.678 631.22 810.48 634.59 815.235 638.192C815.913 646.157 813.454 656.486 812.623 664.562C809.537 694.526 806.18 724.55 802.344 754.429C802.003 760.884 800.998 767.383 800.248 773.805L796.558 806.64L793.07 839.245C792.409 845.535 792.036 852.029 790.838 858.233C787.87 861.914 784.877 864.772 780.883 867.327C764.966 877.51 734.199 884.828 714.989 886.87C685.659 889.987 655.347 884.118 628.941 871.225C623.99 868.807 618.48 866.383 614.153 862.961C613.035 862.077 612.157 861.315 611.526 860.009L611.444 858.123C611.729 851.653 610.475 844.434 609.825 837.945L606.073 800.657L594.082 674.761L591.28 644.084C590.88 639.725 589.83 634.642 590.239 630.322L592.369 628.604C596.235 626.095 600.367 624.338 604.692 622.784C606.363 635.951 607.634 649.165 608.9 662.376C609.266 666.187 610.394 671.143 609.966 674.861C612.663 696.006 614.846 717.21 617.408 738.369C618.399 746.552 621.084 757.91 620.913 765.783C621.806 770.293 622.359 775.244 622.563 779.837C625.013 796.434 626.653 813.322 628.433 830.007C629.307 838.196 629.691 846.795 631.318 854.854C631.853 841.489 629.955 827.521 629.225 814.128L625.253 737.865C622.832 697.722 622.634 657.467 619.413 617.375Z"/>
	<path fill="#D4D2D2" d="M618.436 764.417C618.502 764.547 618.571 764.676 618.635 764.807C619.64 766.856 620.507 769.713 620.489 772.009C620.43 770.089 620.129 767.556 620.913 765.783C621.806 770.293 622.359 775.244 622.563 779.837C622.519 780.986 622.533 781.975 622.126 783.063L622.161 782.595L621.175 782.356L621.702 783.143L622.36 781.549L621.286 782.675C619.185 777.852 618.631 769.702 618.436 764.417Z"/>
	<path fill="#FEFEFE" d="M618.436 764.417C616.971 750.676 606.04 681.986 609.966 674.861C612.663 696.006 614.846 717.21 617.408 738.369C618.399 746.552 621.084 757.91 620.913 765.783C620.129 767.556 620.43 770.089 620.489 772.009C620.507 769.713 619.64 766.856 618.635 764.807C618.571 764.676 618.502 764.547 618.436 764.417Z"/>
	<path fill="#FEFEFE" d="M815.235 638.192C815.913 646.157 813.454 656.486 812.623 664.562C809.537 694.526 806.18 724.55 802.344 754.429C801.967 753.855 801.734 753.355 801.663 752.662C800.651 742.759 810.879 643.906 815.235 638.192Z"/>
	<path fill="#FEFEFE" d="M797.641 649.869L798.318 649.432C801.78 661.41 789.245 739.283 786.563 755.982C785.576 762.121 783.766 768.717 783.227 774.842L783.047 775.059L782.492 774.565L782.455 773.793C782.401 772.818 782.462 773.203 782.28 772.438C784.779 756.878 786.034 741.032 788.006 725.389C791.175 700.24 794.858 675.053 797.641 649.869Z"/>
	<path fill="#FEFEFE" d="M592.369 628.604C594.099 635.342 594.276 643.22 595.012 650.161L599.522 695.298L608.55 795.233C610.052 812.797 612.045 830.396 612.868 848.004C613.003 850.891 613.717 856.72 612.3 859.227L611.444 858.123C611.729 851.653 610.475 844.434 609.825 837.945L606.073 800.657L594.082 674.761L591.28 644.084C590.88 639.725 589.83 634.642 590.239 630.322L592.369 628.604Z"/>
	<path fill="#FEFEFE" d="M754.994 636.486L755.831 635.617C760.396 635.951 770.094 645.506 773.071 648.946C774.465 650.557 775.739 652.275 776.772 654.139C776.583 676.009 772.81 698.21 770.059 719.902C765.019 759.646 760.087 800.196 751.076 839.251C749.192 847.416 747.507 856.606 744.144 864.285C743.415 865.949 742.282 867.443 740.992 868.711C739.565 870.114 737.967 871.327 736.365 872.518C736.588 868.64 736.98 864.709 737.059 860.828C736.704 854.564 737.842 847.44 738.314 841.144L742.368 793.246L749.738 703.431C751.596 681.129 753.803 658.838 754.994 636.486Z"/>
	<path fill="#D51F1E" d="M223.751 272.464C222.038 293.295 225.356 309.396 239.11 325.76C243.454 330.928 248.347 335.63 253.287 340.22C245.95 350.574 239.716 362.419 234.075 373.785C204.04 434.308 194.464 503.344 205.865 569.889C210.27 595.602 218.024 621.092 228.609 644.942C232.018 652.624 236.472 659.832 239.787 667.533C233.214 681.231 227.015 695.024 222.199 709.45C219.041 718.911 217.005 729.338 212.989 738.408C168.231 680.293 140.801 607.232 137.133 533.888C133.797 467.193 148.232 402.319 177.64 342.543C190.028 317.363 204.893 293.31 223.751 272.464Z"/>
	<path fill="#FEFEFE" d="M629.751 217.056C647.935 196.645 672.767 180.438 700.753 178.889C725.627 177.513 748.6 187.968 766.835 204.309C786.286 221.741 799.613 248.62 801.03 274.779C802.213 296.597 792.219 319.477 777.72 335.43C770.95 342.878 763.148 348.673 754.977 354.449C760.262 368.268 764.723 382.279 767.999 396.721C769.583 403.704 769.85 412.066 772.373 418.648C781.683 429.447 789.472 485.519 788.362 499.777C788.297 500.618 788.206 501.432 788.085 502.266C788.051 514.8 788.679 526.569 787.309 539.126C782.208 538.259 778.132 537.42 773.599 534.843C773.266 538.189 773.007 541.564 772.551 544.895C778.774 547.722 796.54 555.797 798.789 562.358C798.84 562.504 798.843 562.663 798.87 562.815C790.408 560.126 781.942 557.244 773.374 554.924C768.275 553.543 763.091 552.626 757.983 551.334C760.877 536.964 760.948 524.462 762.617 510.242C767.845 513.176 770.987 517.627 775.026 521.874C774.919 485.133 769.829 455.582 752.771 422.616L759.741 421.622C757.407 404.07 753.17 386.278 747.328 369.563C744.774 362.257 741.178 355.068 738.959 347.699C759.448 337.399 777.015 322.281 784.405 299.871C791.021 279.804 787.751 258.292 778.27 239.705C768.096 219.76 749.369 202.641 727.885 195.802C708.053 189.49 686.987 191.548 668.62 201.243C654.498 208.697 641.968 220.704 631.854 232.989C614.864 224.704 601.224 219.112 582.562 215.415L593.633 196.522C551.942 196.329 514.284 198.832 474.124 211.084C466.011 213.559 458.305 216.824 450.316 219.595C451.474 215.04 452.72 210.488 453.619 205.874C432.247 214.919 415.486 221.126 395.058 232.979C372.015 209.026 351.671 193.15 316.909 192.611C296.01 192.287 280.623 200.188 265.864 214.606C248.07 231.989 234.912 257.278 234.69 282.51C234.547 298.85 241.749 312.568 253.142 323.949C262.467 333.264 273.573 339.877 284.975 346.264C273.91 370.772 265.081 390.699 260.247 417.49C263.292 418.128 266.221 418.638 269.327 418.878C249.325 462.651 240.669 486.915 240.9 535.665C245.813 526.096 252.058 519.922 260.098 512.989C261.559 539.956 264.933 559.712 283.098 580.519C284.398 573.687 286.578 566.992 288.511 560.316C295.197 571.353 302.174 582.069 310.505 591.957C265.925 635.027 235.909 691.342 223.644 751.962C219.806 747.626 216.398 743.081 212.989 738.408C217.005 729.338 219.041 718.911 222.199 709.45C227.015 695.024 233.214 681.231 239.787 667.533C236.472 659.832 232.018 652.624 228.609 644.942C218.024 621.092 210.27 595.602 205.865 569.889C194.464 503.344 204.04 434.308 234.075 373.785C239.716 362.419 245.95 350.574 253.287 340.22C248.347 335.63 243.454 330.928 239.11 325.76C225.356 309.396 222.038 293.295 223.751 272.464C230.605 244.749 236.111 231.392 257.708 211.789C263.778 206.28 270.215 201.164 276.87 196.38C296.719 182.113 310.122 180.735 334.052 181.885C358.423 184.692 380.177 200.133 397.195 216.989C418.722 206.047 444.601 193.742 467.981 187.931L466.776 199.864L467.258 199.759C476.392 197.696 485.124 194.146 494.332 192.186C522.845 186.117 551.072 183.047 580.217 182.885C586.356 182.851 596.406 181.846 601.721 185.38C604.362 187.135 606.337 190.499 606.777 193.611C607.465 198.47 605.058 202.856 603.076 207.099C612.019 210.298 620.936 213.512 629.751 217.056Z"/>
	<path fill="#020202" d="M772.373 418.648C781.683 429.447 789.472 485.519 788.362 499.777C788.297 500.618 788.206 501.432 788.085 502.266C785.429 474.911 781.053 457.166 770.306 431.739C772.127 427.102 772.569 423.616 772.373 418.648Z"/>
	<path fill="#D51F1E" d="M243.346 552.417C247.226 550.365 248.433 547.917 249.682 543.852C250.297 541.853 250.88 539.845 251.459 537.836C254.98 554.803 259.511 570.112 270.664 583.773C272.986 586.618 275.557 589.749 278.645 591.79C280.631 593.103 282.846 593.832 285.224 593.296C287.555 592.77 289.092 591.732 290.564 589.894C290.993 589.358 290.787 589.564 291.459 589.176C292.516 590.258 292.782 590.91 293.209 592.311C290.259 597.248 284.764 601.838 280.891 606.207C275.445 612.348 270.299 618.836 265.402 625.423C257.73 609.8 252.442 593.036 248.573 576.103C246.805 568.369 246.074 559.851 243.346 552.417Z"/>
	<path fill="#020202" d="M253.287 340.22C258.433 344.248 263.754 348.06 269.142 351.758C263.38 365.693 245.052 410.516 250.934 423.782C251.642 425.379 252.524 426.975 253.52 428.406C248.771 437.429 244.005 446.702 240.456 456.27C230.93 481.953 226.166 517.487 234.676 543.776C235.566 546.527 237.279 549.836 239.947 551.253C240.988 551.806 242.215 552.101 243.346 552.417C246.074 559.851 246.805 568.369 248.573 576.103C252.442 593.036 257.73 609.8 265.402 625.423C256.269 638.811 246.958 652.989 239.787 667.533C236.472 659.832 232.018 652.624 228.609 644.942C218.024 621.092 210.27 595.602 205.865 569.889C194.464 503.344 204.04 434.308 234.075 373.785C239.716 362.419 245.95 350.574 253.287 340.22Z"/>
	<path fill="#D51F1E" d="M512.108 110.782C576.354 108.651 645.875 127.809 702.043 158.506C718.248 167.361 733.548 177.801 748.502 188.605C760.527 197.294 772.59 205.914 783.43 216.08C791.849 223.976 800.439 231.966 808.234 240.485C873.941 312.29 909.951 403.358 912.861 500.423C915.173 577.513 894.95 655.775 855.021 721.834C848.24 733.053 841.075 744.725 832.766 754.879C836.544 731.169 838.297 706.372 840.974 682.453C842.15 671.948 842.643 660.043 845.755 649.947C855.094 645.43 860.782 639.746 864.229 629.897C867.83 619.609 870.914 606.784 865.915 596.549C858.538 581.441 831.437 564.672 816.266 557.177C815.23 561.259 814.069 565.349 813.236 569.476C808.418 567.312 803.617 565.134 798.87 562.815C798.843 562.663 798.84 562.504 798.789 562.358C796.54 555.797 778.774 547.722 772.551 544.895C773.007 541.564 773.266 538.189 773.599 534.843C778.132 537.42 782.208 538.259 787.309 539.126C788.679 526.569 788.051 514.8 788.085 502.266C788.206 501.432 788.297 500.618 788.362 499.777C789.472 485.519 781.683 429.447 772.373 418.648C769.85 412.066 769.583 403.704 767.999 396.721C764.723 382.279 760.262 368.268 754.977 354.449C763.148 348.673 770.95 342.878 777.72 335.43C792.219 319.477 802.213 296.597 801.03 274.779C799.613 248.62 786.286 221.741 766.835 204.309C748.6 187.968 725.627 177.513 700.753 178.889C672.767 180.438 647.935 196.645 629.751 217.056C620.936 213.512 612.019 210.298 603.076 207.099C605.058 202.856 607.465 198.47 606.777 193.611C606.337 190.499 604.362 187.135 601.721 185.38C596.406 181.846 586.356 182.851 580.217 182.885C551.072 183.047 522.845 186.117 494.332 192.186C485.124 194.146 476.392 197.696 467.258 199.759L466.776 199.864L467.981 187.931C444.601 193.742 418.722 206.047 397.195 216.989C380.177 200.133 358.423 184.692 334.052 181.885C345.801 176.034 357.56 170.047 369.652 164.934C415.454 145.568 462.859 136.448 512.409 134.832C512.431 126.82 512.219 118.794 512.108 110.782Z"/>
	<path fill="#FEFEFE" d="M415.421 261.199C419.67 256.749 423.973 252.344 429.143 248.95C435.18 244.986 442.445 242.353 449.075 239.513C485.072 224.095 523.748 215.283 562.942 213.932C555.224 223.213 548.234 232.879 542.287 243.401C549.458 237.798 557.184 232.035 565.256 227.805C626.261 240.522 670.893 272.071 704.975 324.185C720.938 348.596 730.913 375.371 737.979 403.529L719.805 396.295C723.115 401.795 726.941 406.95 730.277 412.432C740.207 428.751 748.429 446.522 753.313 465.03C745.985 459.952 735.748 448.278 728.624 441.682C735.244 463.225 734.652 495.903 727.306 516.975C724.393 511.954 721.588 506.891 718.838 501.779C716.397 516.687 711.397 533.632 703.661 546.571C659.256 545.861 609.549 555.737 570.621 577.692C567.399 556.428 561.117 533.818 542.911 520.39C534.861 514.452 526.236 512.236 516.599 510.337L517.62 497.601C533.043 496.622 540.623 490.249 550.51 478.915C554.456 474.392 558.868 468.271 558.441 461.975C558.161 457.843 555.714 454.4 552.607 451.825C539.808 441.216 513.614 439.91 497.963 441.762C489.171 442.802 475.933 445.622 470.332 453.15C467.894 456.427 467.388 460.298 468.073 464.252C469.83 474.387 476.859 485.232 485.377 490.976C491.368 495.017 498.255 497.167 505.445 497.623C506.334 501.964 507.009 506.312 507.099 510.752C494.127 512.937 476.623 515.83 468.519 527.336C453.324 548.906 451.248 582.62 454.36 607.985C490.098 589.354 523.822 577.65 564.862 581.614C557.056 587.94 550.587 593.18 549.544 604.038C548.684 612.997 548.62 621.945 552.834 630.043C552.672 630.118 552.517 630.21 552.348 630.268C548.548 631.584 538.376 630.624 534.096 630.491C496.569 629.322 461.356 622.155 426.699 607.474C374.902 585.532 325.513 544.432 304.171 491.339C299.005 478.488 296.056 464.673 296.57 450.776C297.249 432.422 303.988 415.71 309.197 398.372C312.465 387.492 314.262 376.183 317.348 365.244C323.855 342.177 335.565 321.179 349.029 301.493C356.445 290.651 365.058 280.878 373.483 270.83C375.476 268.453 381.827 262.453 382.598 260.365C382.687 260.123 382.761 259.875 382.842 259.631C397.34 248.65 414.567 240.019 431.109 232.6C427.171 242.939 421.316 251.911 415.421 261.199Z"/>
	<path fill="#020202" d="M645.293 331.676C645.327 331.672 645.36 331.666 645.394 331.663C662.529 330.541 673.073 337.589 685.993 347.9C676.616 345.855 668.296 345.95 659.025 348.423C675.938 368.644 685.725 387.538 690.527 413.537C694.268 433.785 693.792 460.255 681.395 477.759C676.861 484.16 669.998 485.719 662.687 487.063C638.47 491.514 616.67 484.688 596.758 470.865C579.003 457.923 567.796 440.135 557.327 421.245C554.602 422.685 551.943 423.921 548.788 423.767C543.784 423.522 538.227 420.258 535.026 416.531C526.719 406.858 527.984 393.61 529.055 381.853C530.045 388.397 532.953 399.704 538.216 404.055C541.728 406.958 547.732 400.876 550.367 398.686C575.989 377.397 610.825 335.836 645.293 331.676Z"/>
	<path fill="#FEFEFE" d="M599.641 392.851C599.857 392.936 600.088 392.986 600.287 393.105C601.353 393.743 601.793 394.775 602.01 395.899C601.783 396.765 601.601 397.389 601.018 398.091C599.264 400.204 597.769 400.61 595.118 400.88C593.883 400.415 592.853 400.359 592.195 399.172C593.27 396.43 597.265 394.471 599.641 392.851Z"/>
	<path fill="#FEFEFE" d="M630.387 370.593C636.071 376.633 638.759 388.237 638.557 396.282C638.305 406.296 634.06 416.095 626.681 422.913C619.839 429.234 611.183 432.256 601.901 431.874C591.628 431.452 584.132 426.399 577.352 419.056C575.642 416.615 574.228 414.201 572.903 411.531C575.681 409.221 579.084 407.534 582.217 405.744C582.678 407.009 583.165 408.217 583.81 409.402C585.887 413.213 589.258 416.216 593.495 417.356C598.051 418.582 603.072 417.664 607.041 415.171C611.499 412.37 614.719 407.6 615.774 402.455C617.07 396.137 615.053 390.489 611.696 385.235C617.52 380.085 624.086 375.151 630.387 370.593Z"/>
	<path fill="#363636" d="M647.089 334.19C647.359 334.166 647.628 334.139 647.898 334.119C656.768 333.466 668.049 336.389 674.769 342.356C667.423 343.417 660.423 345.002 653.705 348.248C638.798 355.453 626.04 366.984 613.068 377.087C598.35 388.548 583.477 399.393 567.444 408.945C559.474 413.219 552.343 414.732 543.417 412.352C556.949 401.798 569 389.101 581.163 377.02C599.337 358.969 620.018 336.566 647.089 334.19Z"/>
	<path fill="#363636" d="M657.577 349.557C663.345 354.335 670.363 369.33 672.971 376.371C681.477 399.339 686.757 429.429 675.92 452.482C672.806 459.106 668.204 463.916 661.181 466.423C646.964 471.498 631.574 467.305 618.568 460.97C611.849 457.471 606.176 453.125 600.518 448.12C603.031 448.227 605.566 448.363 608.081 448.28C618.974 447.919 629.147 442.816 636.523 434.864C645.36 425.335 649.117 411.631 648.568 398.853C648.04 386.581 643.43 375.464 634.361 367.132C641.907 360.864 649.42 355.012 657.577 349.557Z"/>
	<path fill="#020202" d="M363.825 330.617C400.042 327.019 441.34 370.241 466.671 392.847C470.491 396.256 477.298 403.471 482.259 404.418C483.405 404.637 484.29 404.411 485.269 403.774C490.848 400.148 493.323 388.465 494.48 382.406C495.537 389.589 495.886 397.379 494.37 404.521C492.969 411.119 489.519 416.877 483.692 420.478C477.928 424.04 473.211 423.601 466.984 422.078C457.492 437.72 444.75 451.155 431.304 463.438C417.103 476.063 397.886 489.458 378.361 490.957C366.838 491.841 355.94 488.237 347.243 480.628C334.969 469.888 329.957 454.45 328.888 438.597C326.59 404.54 342.424 374.611 364.298 349.769C356.525 345.466 348.229 342.684 339.295 342.403C346.862 336.216 354.2 332.395 363.825 330.617Z"/>
	<path fill="#FEFEFE" d="M424.906 392.269C425.685 392.541 426.445 392.805 427.183 393.179C429.032 394.117 431.722 395.543 432.192 397.766C432.357 398.545 431.452 399.349 431 399.959C429.825 400.431 428.315 400.715 427.079 400.31C425.81 399.895 425.093 399.048 424.562 397.865C423.712 395.97 424.161 394.089 424.906 392.269Z"/>
	<path fill="#FEFEFE" d="M388.191 366.725L410.241 382.521C407.821 386.958 406.129 391.099 406.36 396.296C406.616 402.047 409.227 407.444 413.515 411.268C417.786 415.076 423.459 417.371 429.221 416.931C435.92 416.419 440.871 412.955 444.999 407.928C447.952 409.515 450.811 411.268 453.686 412.989C451.9 415.814 450.037 418.426 447.924 421.016C443.217 425.916 437.549 429.482 430.987 431.324C421.649 433.944 411.199 432.608 402.772 427.839C393.19 422.416 386.069 413.023 383.196 402.421C379.812 389.929 381.818 377.827 388.191 366.725Z"/>
	<path fill="#363636" d="M368.367 333.195C408.645 330.445 448.11 389.154 480.109 410.214C480.841 410.696 480.964 410.803 481.504 411.564C481.004 412.473 480.84 412.771 479.834 413.209C475.169 415.238 467.853 413.796 463.335 412.021C456.55 408.989 450.108 404.541 443.929 400.429C431.018 391.837 418.509 382.398 406.216 372.943C393.405 363.089 380.092 352.012 365.424 345.032C359.723 342.319 353.922 340.786 347.795 339.419C354.475 335.749 360.811 333.955 368.367 333.195Z"/>
	<path fill="#363636" d="M365.818 350.823C372.191 353.108 380.232 360.19 385.722 364.281C379.364 372.3 374.665 380.682 373.025 390.906C370.749 405.083 374.437 420.504 382.947 432.083C391.349 443.514 403.301 449.309 417.036 451.46C409.885 456.444 402.488 460.443 394.644 464.19C387.508 467.143 380.667 470.24 372.852 470.791C364.985 471.347 357.549 469.183 351.607 463.853C342.135 455.355 338.81 442.441 338.233 430.172C337.007 404.058 347.964 370.361 365.818 350.823Z"/>
</svg>
