<?xml version="1.0" encoding="utf-8" ?>
<svg xmlns="http://www.w3.org/2000/svg" xmlns:xlink="http://www.w3.org/1999/xlink" width="1024" height="1024">
	<path fill="#FEFEFE" d="M0 0L1024 0L1024 1024L0 1024L0 0Z"/>
	<path fill="#2BA115" d="M582.331 138.272C637.519 148.19 691.654 172.65 736.961 205.48C748.315 213.707 758.466 223.325 769.481 231.944C769.503 228.879 769.585 225.887 769.905 222.836C770.3 226.933 770.743 230.964 771.499 235.011C771.109 247.301 771.171 259.618 771.647 271.907C771.875 277.811 773.279 284.149 772.706 290.005C773.581 297.597 779.884 322.506 779.023 327.135C771.922 318.522 765.532 309.38 758.121 301.003C753.802 296.12 748.311 292.085 744.415 286.881C740.862 282.137 738.927 275.916 735.855 270.793C724.829 252.403 708.335 240.147 688.471 232.704L687.992 231.602C686.775 231.228 685.57 230.976 684.322 230.736L683.686 229.876L683.923 228.959C683.294 227.754 682.861 226.943 682.716 225.566L683.411 225.038C684.503 225.364 685.509 225.572 686.639 225.709L686.728 225.188C685.913 224.402 685.139 223.607 684.382 222.766L684.637 221.715C685.977 222.465 686.856 221.941 688.326 221.63C688.882 220.899 687.998 219.856 687.545 219.129C686.471 217.404 684.767 215.697 684.082 213.784C682.652 209.789 679.479 198.932 680.159 194.951C684.049 191.858 688.229 195.891 692.211 193.431C693.657 190.568 689.372 189.442 688.698 186.911C690.217 185.948 692.215 186.16 693.99 186.07C692.066 184.263 689.655 181.223 689.174 178.566L690.136 178.229L690.088 177.65C686.078 174.798 681.136 172.698 676.702 170.543C654.373 159.686 630.542 150.891 606.594 144.379C599.223 142.375 588.406 141.464 581.941 138.829L582.331 138.272Z"/>
	<path fill="#086B10" d="M769.481 231.944C769.503 228.879 769.585 225.887 769.905 222.836C770.3 226.933 770.743 230.964 771.499 235.011C771.109 247.301 771.171 259.618 771.647 271.907C771.875 277.811 773.279 284.149 772.706 290.005C770.029 270.579 769.415 251.518 769.481 231.944Z"/>
	<path fill="#2BA115" d="M896.922 541.156L897.404 540.79C902.6 536.789 907.164 532.025 912.351 528.005C928.649 515.372 948.543 504.199 968.145 497.775C965.843 536.721 953.16 578.354 923.099 604.839C909.666 616.674 894.084 624.512 877.371 630.593C872.662 632.394 867.847 633.605 862.952 634.774C857.039 639.889 852.905 647.684 848.153 653.885C852.699 642.692 859.202 631.504 865.641 621.302C865.22 620.316 864.819 619.309 864.64 618.247C861.628 600.343 875.604 569.165 885.814 554.569C888.954 550.079 893.524 546.463 896.458 541.898C896.615 541.652 896.767 541.403 896.922 541.156Z"/>
	<path fill="#FEFEFE" d="M865.641 621.302C879.586 600.248 896.812 581.933 913.002 562.686C919.159 555.366 927.406 543.657 934.278 537.774C927.178 549.643 918.226 560.938 909.982 572.066L862.952 634.774C857.039 639.889 852.905 647.684 848.153 653.885C852.699 642.692 859.202 631.504 865.641 621.302Z"/>
	<path fill="#2BA115" d="M56.6425 637.919C92.2545 629.534 121.558 635.606 154.527 649.882C188.627 666.256 205.564 680.846 228.692 710.753C231.597 714.511 237.956 721.151 239.433 725.333C244.438 730.084 249.629 734.683 254.274 739.791C248.365 736.015 242.348 732.1 236.01 729.08C224.297 729.816 212.62 730.194 200.898 730.686C197.684 729.988 193.446 730.333 190.057 730.069C181.453 729.399 172.742 728.278 164.371 726.149C114.655 713.502 82.0288 680.712 56.6425 637.919Z"/>
	<path fill="#FEFEFE" d="M236.01 729.08C224.854 722.215 212.465 716.779 200.845 710.69C179.324 699.412 157.941 687.856 136.267 676.875C128.422 672.9 108.806 664.518 103.049 660.009C114.321 663.422 125.359 668.667 136.263 673.153C160.111 682.963 183.948 692.871 206.62 705.237C217.878 711.378 228.617 718.458 239.433 725.333C244.438 730.084 249.629 734.683 254.274 739.791C248.365 736.015 242.348 732.1 236.01 729.08Z"/>
	<path fill="#2BA115" d="M131 532.135C109.405 521.072 95.5743 502.893 84.9139 481.442C58.6758 428.645 64.9489 355.554 83.286 301.217C110.171 328.895 133.757 358.251 152.316 392.154C165.922 419.133 175.028 449.84 172.225 480.29C171.501 488.151 168.556 495.569 167.694 503.241L168.49 504.055C164.71 515.047 160.4 524.67 151.262 532.229C154.492 545.718 157.458 558.974 159.601 572.692C154.07 560.694 150.097 547.561 145.618 535.118C140.601 534.598 135.866 533.457 130.946 532.435L131 532.135Z"/>
	<path fill="#FEFEFE" d="M145.416 534.404C131.063 491.859 119.774 448.682 108.369 405.282L100.329 373.848C98.7262 367.433 96.5668 360.675 96.098 354.074C113.971 413.258 134.781 471.427 151.428 530.976C159.015 522.542 163.733 513.842 167.694 503.241L168.49 504.055C164.71 515.047 160.4 524.67 151.262 532.229C154.492 545.718 157.458 558.974 159.601 572.692C154.07 560.694 150.097 547.561 145.618 535.118C140.601 534.598 135.866 533.457 130.946 532.435L131 532.135C135.753 532.414 140.707 533.615 145.416 534.404Z"/>
	<path fill="#2BA115" d="M782.641 143.005C783.697 143.933 784.658 144.952 785.636 145.959C792.027 151.43 797.795 157.565 803.6 163.642C824.983 186.027 844.421 210.78 859.463 237.901C862.194 242.825 865.303 248.083 867.221 253.377C871.381 260.321 874.036 268.984 876.617 276.636C888.84 312.868 891.986 350.566 882.622 387.854C880.267 397.232 874.869 410.085 873.862 418.698L874.433 418.935C872.648 422.411 875.828 432.446 876.493 436.614C879.666 456.47 882.389 477.308 881.862 497.462C877.193 472.053 873.208 445.181 863.946 420.976C855.45 419.087 836.053 405.411 828.897 399.652C824.333 395.98 820.106 391.718 815.381 388.276C814.621 387.723 814.032 387.538 813.108 387.441C808.517 377.272 800.095 368.836 794.729 358.922C789.189 348.685 786.159 336.276 779.023 327.135C779.884 322.506 773.581 297.597 772.706 290.005C773.279 284.149 771.875 277.811 771.647 271.907C771.171 259.618 771.109 247.301 771.499 235.011C770.743 230.964 770.3 226.933 769.905 222.836C770.057 214.787 771.253 206.652 772.303 198.683C774.78 179.885 778.192 161.437 782.641 143.005Z"/>
	<path fill="#13860D" d="M782.641 143.005C783.697 143.933 784.658 144.952 785.636 145.959C786.634 148.461 787.992 150.552 789.469 152.78L785.393 149.764C779.591 155.138 771.928 224.783 771.499 235.011C770.743 230.964 770.3 226.933 769.905 222.836C770.057 214.787 771.253 206.652 772.303 198.683C774.78 179.885 778.192 161.437 782.641 143.005Z"/>
	<defs>
		<linearGradient id="gradient_0" gradientUnits="userSpaceOnUse" x1="812.20294" y1="183.14877" x2="818.53253" y2="178.68517">
			<stop offset="0" stop-color="#075B06"/>
			<stop offset="1" stop-color="#097C0A"/>
		</linearGradient>
	</defs>
	<path fill="url(#gradient_0)" d="M785.636 145.959C792.027 151.43 797.795 157.565 803.6 163.642C824.983 186.027 844.421 210.78 859.463 237.901C862.194 242.825 865.303 248.083 867.221 253.377C866.63 253.304 866.42 253.08 865.949 252.738C862.074 244.106 850.925 223.601 845.004 216.427C844.217 215.475 843.639 214.645 843.06 213.548C842.5 212.486 841.964 211.421 841.082 210.577C840.879 210.382 840.643 210.225 840.424 210.05L840.765 210.112L840.14 209.663L839.958 210.143C845.133 215.912 860.037 241.285 862.449 248.582L862.179 248.83C848.073 220.99 829.689 196.264 808.931 173.072C802.857 166.286 795.679 160.372 789.918 153.334L789.469 152.78C787.992 150.552 786.634 148.461 785.636 145.959Z"/>
	<defs>
		<linearGradient id="gradient_1" gradientUnits="userSpaceOnUse" x1="805.71661" y1="251.27127" x2="890.78339" y2="483.22873">
			<stop offset="0" stop-color="#FFEFFF"/>
			<stop offset="1" stop-color="white"/>
		</linearGradient>
	</defs>
	<path fill="url(#gradient_1)" d="M807.921 221.316C815.459 240.237 821.379 260.04 828.141 279.266C839.104 310.433 850.621 341.499 860.465 373.043C862.217 378.657 872.66 417.554 873.862 418.698L874.433 418.935C872.648 422.411 875.828 432.446 876.493 436.614C879.666 456.47 882.389 477.308 881.862 497.462C877.193 472.053 873.208 445.181 863.946 420.976C860.052 404.677 854.371 388.706 849.7 372.61C839.188 336.39 828.934 300.105 819.231 263.659C815.485 249.588 811.102 235.512 807.921 221.316Z"/>
	<path fill="#6BC21D" d="M152.316 392.154C155.315 387.041 158.149 375.358 160.514 369.087C164.5 358.519 169.417 348.254 174.526 338.191C207.685 272.879 261.84 216.418 325.852 180.819C391.911 144.082 468.647 125.182 544.322 132.534C556.721 133.739 570.326 134.848 582.331 138.272L581.941 138.829C588.406 141.464 599.223 142.375 606.594 144.379C630.542 150.891 654.373 159.686 676.702 170.543C681.136 172.698 686.078 174.798 690.088 177.65L690.136 178.229L689.174 178.566C689.655 181.223 692.066 184.263 693.99 186.07C692.215 186.16 690.217 185.948 688.698 186.911C689.372 189.442 693.657 190.568 692.211 193.431C688.229 195.891 684.049 191.858 680.159 194.951C679.479 198.932 682.652 209.789 684.082 213.784C684.767 215.697 686.471 217.404 687.545 219.129C687.998 219.856 688.882 220.899 688.326 221.63C686.856 221.941 685.977 222.465 684.637 221.715L684.382 222.766C685.139 223.607 685.913 224.402 686.728 225.188L686.639 225.709C685.509 225.572 684.503 225.364 683.411 225.038L682.716 225.566C682.861 226.943 683.294 227.754 683.923 228.959L683.686 229.876L684.322 230.736C685.57 230.976 686.775 231.228 687.992 231.602L688.471 232.704C683.804 231.44 679.061 230.441 674.236 230.034C670.145 229.688 665.407 230.098 661.444 229.019C657.078 227.83 652.735 225.246 648.637 223.299C642.453 220.362 636.141 217.475 629.756 215.003C603.576 204.864 576.429 199.086 548.671 195.381C537.422 194.934 526.29 193.593 514.998 193.459C474.871 192.981 435.036 200.576 397.753 215.344C387.178 219.533 375.048 223.797 365.719 230.381C346.444 227.728 325.493 233.756 310.048 245.432C299.955 253.062 290.664 263.792 285.358 275.327C283.422 279.538 281.938 285.115 279.183 288.817C276.078 292.99 271.92 296.563 268.328 300.328C262.122 306.833 256.117 313.607 250.625 320.729C221.936 357.928 201.356 403.644 191.666 449.564C189.655 459.093 188.412 468.849 187.122 478.496L186.086 486.847C180.258 492.619 174.475 498.447 168.49 504.055L167.694 503.241C168.556 495.569 171.501 488.151 172.225 480.29C175.028 449.84 165.922 419.133 152.316 392.154Z"/>
	<path fill="#2BA115" d="M548.671 195.381C552.786 193.99 560.291 196.036 564.569 196.763C585.234 200.271 605.928 205.174 625.618 212.44C634.06 215.556 642.252 219.387 650.591 222.771C651.757 223.244 657.27 225.776 657.985 225.293C658.122 225.2 659.295 224.652 659.458 224.575C658.713 223.62 657.683 223.118 656.658 222.516C659.419 221.54 668.571 225.561 671.45 226.897C672.402 227.339 673.312 227.847 674.239 228.339C675.008 228.747 675.79 229.134 676.561 229.539C677.768 229.239 678.856 228.879 680.005 228.403C680.973 228.605 681.112 228.749 681.844 229.46C682.703 230.295 683.182 230.491 684.322 230.736C685.57 230.976 686.775 231.228 687.992 231.602L688.471 232.704C683.804 231.44 679.061 230.441 674.236 230.034C670.145 229.688 665.407 230.098 661.444 229.019C657.078 227.83 652.735 225.246 648.637 223.299C642.453 220.362 636.141 217.475 629.756 215.003C603.576 204.864 576.429 199.086 548.671 195.381Z"/>
	<defs>
		<linearGradient id="gradient_2" gradientUnits="userSpaceOnUse" x1="603.95862" y1="881.51154" x2="487.19897" y2="413.9155">
			<stop offset="0" stop-color="#020405"/>
			<stop offset="1" stop-color="#203321"/>
		</linearGradient>
	</defs>
	<path fill="url(#gradient_2)" d="M813.108 387.441C814.032 387.538 814.621 387.723 815.381 388.276C820.106 391.718 824.333 395.98 828.897 399.652C836.053 405.411 855.45 419.087 863.946 420.976C873.208 445.181 877.193 472.053 881.862 497.462C882.389 477.308 879.666 456.47 876.493 436.614C875.828 432.446 872.648 422.411 874.433 418.935C875.892 414.629 877.257 410.231 878.868 405.981C894.96 450.178 900.902 494.343 896.922 541.156C896.767 541.403 896.615 541.652 896.458 541.898C893.524 546.463 888.954 550.079 885.814 554.569C875.604 569.165 861.628 600.343 864.64 618.247C864.819 619.309 865.22 620.316 865.641 621.302C859.202 631.504 852.699 642.692 848.153 653.885C852.905 647.684 857.039 639.889 862.952 634.774C867.847 633.605 872.662 632.394 877.371 630.593C873.271 639.764 869.747 649.173 865.748 658.385C860.516 670.438 854.611 682.307 848.213 693.781C803.684 773.644 732.107 836.699 646.617 869.353C550.999 905.874 446.987 901.081 353.952 859.43C301.842 836.101 253.768 797.741 217.939 753.46C212.037 746.165 205.896 738.641 200.898 730.686C212.62 730.194 224.297 729.816 236.01 729.08C242.348 732.1 248.365 736.015 254.274 739.791C249.629 734.683 244.438 730.084 239.433 725.333C237.956 721.151 231.597 714.511 228.692 710.753C205.564 680.846 188.627 666.256 154.527 649.882C140.876 618.436 134.18 584.258 131.499 550.218C131.103 545.186 129.657 537.293 130.946 532.435C135.866 533.457 140.601 534.598 145.618 535.118C150.097 547.561 154.07 560.694 159.601 572.692C157.458 558.974 154.492 545.718 151.262 532.229C160.4 524.67 164.71 515.047 168.49 504.055C174.475 498.447 180.258 492.619 186.086 486.847C181.312 536.79 188.743 583.385 207.011 630.138C237.984 709.401 301.818 772.04 379.285 805.935C459.124 840.868 553.959 842.319 635.056 810.459C714.984 779.058 779.976 715.489 814.243 636.846C840.413 576.783 846.078 506.864 831.277 443.142C826.841 424.043 820.245 405.67 813.108 387.441Z"/>
	<path fill="#FEFEFE" d="M365.719 230.381C375.048 223.797 387.178 219.533 397.753 215.344C435.036 200.576 474.871 192.981 514.998 193.459C526.29 193.593 537.422 194.934 548.671 195.381C576.429 199.086 603.576 204.864 629.756 215.003C636.141 217.475 642.453 220.362 648.637 223.299C652.735 225.246 657.078 227.83 661.444 229.019C665.407 230.098 670.145 229.688 674.236 230.034C679.061 230.441 683.804 231.44 688.471 232.704C708.335 240.147 724.829 252.403 735.855 270.793C738.927 275.916 740.862 282.137 744.415 286.881C748.311 292.085 753.802 296.12 758.121 301.003C765.532 309.38 771.922 318.522 779.023 327.135C786.159 336.276 789.189 348.685 794.729 358.922C800.095 368.836 808.517 377.272 813.108 387.441C820.245 405.67 826.841 424.043 831.277 443.142C846.078 506.864 840.413 576.783 814.243 636.846C779.976 715.489 714.984 779.058 635.056 810.459C553.959 842.319 459.124 840.868 379.285 805.935C301.818 772.04 237.984 709.401 207.011 630.138C188.743 583.385 181.312 536.79 186.086 486.847L187.122 478.496C188.412 468.849 189.655 459.093 191.666 449.564C201.356 403.644 221.936 357.928 250.625 320.729C256.117 313.607 262.122 306.833 268.328 300.328C271.92 296.563 276.078 292.99 279.183 288.817C281.938 285.115 283.422 279.538 285.358 275.327C290.664 263.792 299.955 253.062 310.048 245.432C325.493 233.756 346.444 227.728 365.719 230.381Z"/>
	<path fill="#000100" d="M384.781 237.29C390.589 234.556 396.65 232.208 402.653 229.938C478.448 201.276 565.377 203.042 639.472 236.395C635.331 238.756 631.296 241.339 627.3 243.938C623.286 247.029 620.034 250.482 616.843 254.4C616.012 256.024 615.028 257.598 614.119 259.182C603.05 254.008 591.695 250.122 580.133 246.239C567.756 243.02 555.381 240.033 542.694 238.316C534.133 237.158 525.509 236.704 516.908 235.954C513.626 235.818 510.307 235.963 507.023 236.013C485.329 237.379 463.994 239.647 443.187 246.359L431.107 250.364C423.448 252.204 416.001 255.853 408.895 259.189C405.019 254.124 401.218 249.32 396.402 245.109C392.693 242.124 388.967 239.568 384.781 237.29Z"/>
	<path fill="#6BC21D" d="M580.031 228.464C595.891 232.08 612.437 237.323 627.3 243.938C623.286 247.029 620.034 250.482 616.843 254.4C612.103 250.349 597.674 246.632 591.565 244.643C587.589 239.339 584.183 233.655 580.031 228.464Z"/>
	<path fill="#6BC21D" d="M396.402 245.109C412.001 238.805 427.536 233.183 443.94 229.311C441.09 233.648 431.68 246.186 431.107 250.364C423.448 252.204 416.001 255.853 408.895 259.189C405.019 254.124 401.218 249.32 396.402 245.109Z"/>
	<path fill="#6BC21D" d="M457.633 226.133C474.244 224.546 490.574 221.987 507.313 221.436C506.919 226.239 507.087 231.19 507.023 236.013C485.329 237.379 463.994 239.647 443.187 246.359C446.886 239.22 452.728 232.5 457.633 226.133Z"/>
	<path fill="#6BC21D" d="M516.672 221.465C533.451 222.048 550.072 223.652 566.637 226.391C571.405 231.99 576.65 239.776 580.133 246.239C567.756 243.02 555.381 240.033 542.694 238.316C534.133 237.158 525.509 236.704 516.908 235.954L516.672 221.465Z"/>
	<path fill="#000100" d="M748.964 316.49C802.371 378.468 827.18 457.124 821.17 538.407C817.859 583.186 805.273 624.015 782.744 662.837C778.845 654.785 774.097 647.733 768.817 640.554C755.478 624.487 738.439 612.454 719.971 602.932C722.7 598.091 725.329 593.26 727.744 588.251L731.94 579.474C737.296 567.524 740.095 555.394 743.714 542.919L744.189 543.01C744.501 544.324 744.78 546.372 745.688 547.409C747.104 549.027 749.219 550.227 751.368 550.474C753.448 550.712 755.532 550.062 757.102 548.681C762.701 543.756 762.699 530.922 763.359 523.947L763.487 515.714C763.416 496.816 759.425 478.068 753.885 460.085L751.081 451.473C746.967 440.946 742.854 430.41 737.068 420.66C731.839 411.848 725.483 403.726 720.361 394.855C718.536 391.859 717.153 388.523 715.506 385.412C714.926 383.09 717.993 381.66 719.62 380.388C735.387 368.059 744.103 352.457 747.675 332.933C748.327 327.458 749.003 322.016 748.964 316.49Z"/>
	<path fill="#6BC21D" d="M747.675 332.933C759.225 344.072 775.738 370.894 782.199 385.909L742.512 385.569C733.536 385.554 724.47 385.846 715.506 385.412C714.926 383.09 717.993 381.66 719.62 380.388C735.387 368.059 744.103 352.457 747.675 332.933Z"/>
	<path fill="#2BA115" d="M727.744 588.251C752.855 589.231 778.003 588.504 803.13 588.549C798.321 605.901 792.844 624.371 784.611 640.431C779.361 640.015 774.031 639.598 768.817 640.554C755.478 624.487 738.439 612.454 719.971 602.932C722.7 598.091 725.329 593.26 727.744 588.251Z"/>
	<path fill="#2BA115" d="M753.885 460.085C771.682 460.034 789.499 460.148 807.291 459.716C810.27 478.581 812.154 496.859 812.04 515.975C795.951 515.803 779.554 515.021 763.487 515.714C763.416 496.816 759.425 478.068 753.885 460.085Z"/>
	<path fill="#2BA115" d="M763.359 523.947C779.159 526.096 796.094 524.997 812.05 525.018C811.125 543.568 808.953 561.767 805.209 579.966L731.94 579.474C737.296 567.524 740.095 555.394 743.714 542.919L744.189 543.01C744.501 544.324 744.78 546.372 745.688 547.409C747.104 549.027 749.219 550.227 751.368 550.474C753.448 550.712 755.532 550.062 757.102 548.681C762.701 543.756 762.699 530.922 763.359 523.947Z"/>
	<path fill="#6BC21D" d="M720.361 394.855C742.393 394.424 764.478 395.447 786.495 394.55C794.869 413.995 800.517 430.608 805.481 451.213C799.028 451.21 754.614 450.338 751.081 451.473C746.967 440.946 742.854 430.41 737.068 420.66C731.839 411.848 725.483 403.726 720.361 394.855Z"/>
	<path fill="#000100" d="M239.542 660.903C220.692 630.041 207.108 585.829 203.257 549.948C194.751 470.7 214.765 396.7 261.647 332.326C265.87 326.526 270.738 321.258 275.241 315.681C275.262 323.091 275.948 330.324 277.353 337.603C281.381 357.244 290.361 371.375 307.037 382.849L303.592 389.121C302.257 391.831 301.015 394.82 299.322 397.317C289.287 413.689 280.299 430.218 272.842 447.922C271.752 450.733 270.643 453.531 269.719 456.403C263.797 475.081 261.598 492.876 262.109 512.412L262.749 520.106C264.508 529.623 267.05 538.537 271.096 547.338C273.263 542.435 275.372 537.499 277.803 532.719C279.63 547.815 283.49 562.044 289.333 576.062L292.15 581.96C295.899 588.859 299.769 595.671 303.729 602.452C283.489 614.498 269.708 624.905 253.854 642.265C249.15 648.526 244.32 654.698 239.542 660.903Z"/>
	<path fill="#6BC21D" d="M268.909 336.189C271.721 336.725 274.515 337.226 277.353 337.603C281.381 357.244 290.361 371.375 307.037 382.849L303.592 389.121C282.652 385.978 261.609 385.099 240.529 383.471C248.463 366.719 258.546 351.496 268.909 336.189Z"/>
	<path fill="#2BA115" d="M214.176 459.795C232.616 457.979 251.22 457.415 269.719 456.403C263.797 475.081 261.598 492.876 262.109 512.412C244.461 512.945 226.614 514.828 209.067 516.7C208.852 497.419 211.333 478.796 214.176 459.795Z"/>
	<path fill="#13860D" d="M219.028 590.864C234.785 588.459 250.537 586.248 266.367 584.381C274.895 583.376 283.563 582.113 292.15 581.96C295.899 588.859 299.769 595.671 303.729 602.452C283.489 614.498 269.708 624.905 253.854 642.265C248.982 642.514 244.336 643.753 239.647 645.018C230.845 628.01 224.494 609.166 219.028 590.864Z"/>
	<path fill="#6BC21D" d="M235.529 393.092C256.818 393.643 278.12 395.368 299.322 397.317C289.287 413.689 280.299 430.218 272.842 447.922C265.586 448.743 258.07 448.536 250.768 448.67L216.394 449.282C221.755 429.825 227.074 411.473 235.529 393.092Z"/>
	<path fill="#2BA115" d="M262.749 520.106C264.508 529.623 267.05 538.537 271.096 547.338C273.263 542.435 275.372 537.499 277.803 532.719C279.63 547.815 283.49 562.044 289.333 576.062C265.155 576.393 240.296 577.439 216.369 581.001C212.843 562.717 210.154 544.893 209.423 526.231C214.749 525.866 260.573 521.651 262.555 520.632L262.193 520.533L262.749 520.106Z"/>
	<path fill="#2BA115" d="M350.33 633.919C367.42 638.929 384.939 642.443 402.059 647.496C442.413 659.405 481.691 680.192 512.244 709.343C519.646 701.32 528.354 694.677 537.249 688.399C577.419 660.046 624.537 644.77 672.272 634.92C657.378 649.847 650.631 669.253 650.577 690.259C650.571 692.623 650.742 695.031 651.001 697.381C659.844 688.318 667.301 677.861 675.712 668.386C672.556 698.377 669.439 734.321 655.705 761.369C651.139 770.363 645.293 778.675 638.219 785.879C637.082 787.037 630.188 793.048 630.576 793.696C626.917 795.502 622.828 796.717 618.979 798.103C601.47 804.407 583.747 808.564 565.384 811.553C574.57 808.116 583.312 803.826 591.554 798.494C600.648 792.611 608.549 785.539 615.8 777.515C634.252 757.097 642.878 736.339 648.597 709.707C623.438 719.193 596.577 742.597 579.893 763.683C575.358 769.415 571.502 775.599 567.571 781.75C578.861 744.537 597.652 699.299 624.082 670.312C627.676 666.37 631.719 663.022 635.71 659.505C630.453 662.194 625.223 664.999 620.111 667.955C583.56 689.092 554.265 720.804 538.798 760.271C535.238 769.355 532.82 778.612 530.312 788.024C529.238 763.562 522.124 740.89 511.701 718.924C500.167 741.165 495.449 764.257 492.573 788.944C491.267 779.039 488.761 769.548 485.129 760.24C467.287 714.517 430.394 677.065 385.625 657.312C414.355 678.205 431.37 715.9 444.53 747.854C448.94 758.562 453.683 769.662 456.534 780.907C434.541 747.325 412.14 723.076 373.704 708.022C374.328 715.469 375.492 722.694 377.575 729.881C385.887 758.568 406.174 783.737 431.814 798.874C439.781 803.578 448.419 806.78 456.433 811.286L456.924 811.566C442.399 809.175 402.865 800.152 391.391 792.82L390.688 792.107C385.224 786.644 379.319 782.255 374.373 776.151C356.248 753.785 350.007 722.309 349.778 694.067C349.708 685.484 350.337 676.791 351.465 668.286C356.664 678.561 362.999 688.562 370.464 697.331C373.087 676.401 366.741 654.811 353.865 638.198C352.734 636.738 351.55 635.305 350.33 633.919Z"/>
	<path fill="#000100" d="M618.91 277.402C627.499 262.462 637.063 251.078 654.343 246.313C668.917 242.294 684.286 245.034 697.237 252.582C714.796 262.815 726.76 280.15 731.908 299.679C736.486 317.048 734.215 336.735 725.054 352.265C718.429 363.494 708.311 371.977 696.166 376.652C699.732 386.473 703.908 396.527 709.396 405.43C713.51 412.106 718.442 418.245 722.482 424.968C740.29 454.6 746.791 485.824 749.198 519.817L748.973 519.441C744.27 511.446 741.394 503.517 734.197 497.168C732.474 531.529 725.521 566.802 706.657 596.209C706.869 586.165 706.901 577.13 704.06 567.387C699.289 580.47 692.134 591.745 684.791 603.473C718.174 615.383 752.816 635.059 768.694 668.169C770.232 671.375 771.539 674.7 772.857 678.002C739.532 730.019 687.64 770.698 630.576 793.696C630.188 793.048 637.082 787.037 638.219 785.879C645.293 778.675 651.139 770.363 655.705 761.369C669.439 734.321 672.556 698.377 675.712 668.386C667.301 677.861 659.844 688.318 651.001 697.381C650.742 695.031 650.571 692.623 650.577 690.259C650.631 669.253 657.378 649.847 672.272 634.92C624.537 644.77 577.419 660.046 537.249 688.399C528.354 694.677 519.646 701.32 512.244 709.343C481.691 680.192 442.413 659.405 402.059 647.496C384.939 642.443 367.42 638.929 350.33 633.919C351.55 635.305 352.734 636.738 353.865 638.198C366.741 654.811 373.087 676.401 370.464 697.331C362.999 688.562 356.664 678.561 351.465 668.286C350.337 676.791 349.708 685.484 349.778 694.067C350.007 722.309 356.248 753.785 374.373 776.151C379.319 782.255 385.224 786.644 390.688 792.107L391.391 792.82C333.409 770.816 281.929 726.984 248.161 675.357C276.919 634.575 295.339 620.722 340.62 600.637C332.726 588.547 325.795 576.059 320.311 562.681C318.629 573.616 318.383 584.282 317.615 595.274C296.806 564.576 290.767 535.513 290.48 499.042C285.974 504.818 281.87 510.699 277.566 516.595C274.563 476.244 287.347 446.864 307.763 413.669C314.831 402.176 322.811 389.59 327.169 376.763C310.963 369.064 299.929 359.517 293.821 342.125C287.322 323.619 288.473 301.91 297.053 284.258C305.155 267.589 319.693 253.787 337.339 247.776C350.301 243.36 363.932 243.399 376.344 249.533C388.865 255.721 396.429 266.16 403.011 278.046C462.207 248.569 523.274 242.422 586.333 263.626C597.64 267.428 608.193 272.179 618.91 277.402Z"/>
	<path fill="#FEFEFE" d="M712.318 492.917C713.736 504.593 713.254 516.638 710.726 528.141C707.534 521.947 703.758 516.325 699.62 510.729C699.783 510.753 699.95 510.76 700.109 510.801C701.075 511.052 701.448 511.659 701.95 512.438C702.46 513.23 702.922 513.878 703.59 514.555C706.858 511.667 708.119 507.466 711.07 504.409C713.793 501.587 710.969 497.274 712.012 493.814C712.103 493.511 712.216 493.216 712.318 492.917Z"/>
	<path fill="#2A2B2A" d="M664.805 258.193C674.641 256.735 685.323 259.171 693.682 264.448C707.504 273.173 713.52 286.98 717.031 302.341C714.807 299.153 712.437 296.22 709.878 293.295C695.161 277.187 670.496 264.592 648.925 261.684C654.169 260.171 659.359 258.738 664.805 258.193Z"/>
	<path fill="#2A2B2A" d="M353.762 260.701C364.606 260.941 373.362 263.933 382.479 269.746C372.134 267.736 361.99 268.272 352.092 272.093C335.298 278.575 323.125 291.515 315.981 307.818C312.807 316.031 312.276 323.444 311.626 332.117C310.764 327.932 309.909 323.724 309.445 319.473C307.882 305.156 310.56 289.487 319.839 278.068C328.249 267.717 340.659 261.968 353.762 260.701Z"/>
	<path fill="#D5D5D4" d="M320.598 475.893C320.688 476.081 320.779 476.269 320.866 476.458C323.758 482.72 325.525 489.53 327.996 495.974C330.521 502.559 333.825 508.608 337.249 514.756C338.351 516.735 339.946 520.752 342.111 521.66C342.049 521.394 341.941 521.135 341.926 520.862C341.91 520.555 341.99 520.25 342.021 519.944L342.611 521.231C342.836 521.045 343.055 520.852 343.285 520.671C345.733 518.743 356.768 520.273 360.312 520.246L360.875 520.606C365.758 523.793 369.417 528.322 373.897 531.998C386.102 542.013 400.744 547.626 416.008 551.099C423.048 552.701 434.674 552.387 440.582 554.946L441.595 555.399C441.781 555.664 441.887 556.009 442.153 556.196C442.805 556.653 445.014 557.025 445.877 557.308C449.173 558.387 453.429 560.42 455.957 562.801C458.747 565.43 461.002 569.07 463.188 572.197C469.84 581.71 476.886 588.133 488.65 590.238C496.746 591.686 503.801 589.866 511.796 589.853C515.702 589.847 519.624 590.587 523.517 590.893C532.033 591.563 540.908 589.603 547.91 584.617C551.271 582.224 554.263 579.243 556.832 576.022C559.221 573.028 561.237 568.723 564.472 566.636C566.077 565.601 568.224 565.248 570.065 564.82L568.014 564.403C569.05 561.223 562.204 559.069 560.991 556.149C561.996 554.969 562.713 554.976 564.18 554.562C567.273 554.799 570.806 554.168 573.874 553.72C610.795 548.332 653.026 528.808 684.798 509.525C689.565 506.631 693.84 503.134 698.521 500.16C702.313 497.75 709.558 495.192 712.256 491.599L712.318 492.917C712.216 493.216 712.103 493.511 712.012 493.814C710.969 497.274 713.793 501.587 711.07 504.409C708.119 507.466 706.858 511.667 703.59 514.555C702.922 513.878 702.46 513.23 701.95 512.438C701.448 511.659 701.075 511.052 700.109 510.801C699.95 510.76 699.783 510.753 699.62 510.729L696.728 508.301C693.163 533.455 686.096 554.987 669.367 574.536C672.887 566.406 674.324 557.915 674.586 549.112C663.836 572.672 648.678 590.476 626.812 604.413C578.809 635.008 513.787 641.913 458.934 629.601C422.844 621.5 387.335 602.548 362.663 574.69C355.377 566.464 349.385 557.419 343.51 548.169C344.533 556.833 347.145 564.872 349.823 573.131C334.949 547.109 328.549 527.346 322.033 498.348C319.116 509.461 318.075 520.149 317.319 531.563C313.832 518.981 310.836 500.574 313.851 487.666C315.841 486.926 316.45 485.385 317.318 483.48C318.459 480.976 319.512 478.423 320.598 475.893Z"/>
	<path fill="#FEFEFE" d="M303.491 476.542C309.062 444.82 322.45 425.231 334.954 396.884C343.461 377.598 349.125 358.19 361.272 340.568C371.054 326.376 383.649 314.376 397.735 304.507C440.443 274.583 497.981 264.201 548.952 273.391C590.97 280.965 634.115 302.158 658.911 337.988C668.442 351.761 675.616 367.507 681.966 382.947C685.061 390.473 687.77 398.088 691.324 405.422C697.713 418.603 706.349 430.442 712.028 444.001C715.614 452.564 718.221 461.61 719.937 470.725C714.528 466.42 709.532 462.936 703.253 459.932C707.923 470.12 711.059 480.443 712.256 491.599C709.558 495.192 702.313 497.75 698.521 500.16C693.84 503.134 689.565 506.631 684.798 509.525C653.026 528.808 610.795 548.332 573.874 553.72C570.806 554.168 567.273 554.799 564.18 554.562C562.713 554.976 561.996 554.969 560.991 556.149C562.204 559.069 569.05 561.223 568.014 564.403L570.065 564.82C568.224 565.248 566.077 565.601 564.472 566.636C561.237 568.723 559.221 573.028 556.832 576.022C554.263 579.243 551.271 582.224 547.91 584.617C540.908 589.603 532.033 591.563 523.517 590.893C519.624 590.587 515.702 589.847 511.796 589.853C503.801 589.866 496.746 591.686 488.65 590.238C476.886 588.133 469.84 581.71 463.188 572.197C461.002 569.07 458.747 565.43 455.957 562.801C453.429 560.42 449.173 558.387 445.877 557.308C445.014 557.025 442.805 556.653 442.153 556.196C441.887 556.009 441.781 555.664 441.595 555.399L440.582 554.946C434.674 552.387 423.048 552.701 416.008 551.099C400.744 547.626 386.102 542.013 373.897 531.998C369.417 528.322 365.758 523.793 360.875 520.606L360.312 520.246C356.768 520.273 345.733 518.743 343.285 520.671C343.055 520.852 342.836 521.045 342.611 521.231L342.021 519.944C341.99 520.25 341.91 520.555 341.926 520.862C341.941 521.135 342.049 521.394 342.111 521.66C339.946 520.752 338.351 516.735 337.249 514.756C333.825 508.608 330.521 502.559 327.996 495.974C325.525 489.53 323.758 482.72 320.866 476.458C320.779 476.269 320.688 476.081 320.598 475.893C319.512 478.423 318.459 480.976 317.318 483.48C316.45 485.385 315.841 486.926 313.851 487.666C314.517 477.724 316.721 467.365 319.935 457.951C313.901 463.769 308.373 469.694 303.491 476.542Z"/>
	<path fill="#000100" d="M478.06 547.201C472.813 542.029 464.693 533.409 464.542 525.559C464.473 521.943 466.289 518.673 468.795 516.173C478.892 506.1 500.12 503.675 513.582 504.028C526.139 504.357 541.522 507.602 550.342 517.331C554.129 521.508 556.358 527.089 555.9 532.767C555.316 540.009 550.424 546.088 544.95 550.478C542.635 552.334 540.12 553.859 537.577 555.377C542.731 558.094 557.509 554.845 563.573 554.583L564.18 554.562C562.713 554.976 561.996 554.969 560.991 556.149C562.204 559.069 569.05 561.223 568.014 564.403L570.065 564.82C568.224 565.248 566.077 565.601 564.472 566.636C561.237 568.723 559.221 573.028 556.832 576.022C554.263 579.243 551.271 582.224 547.91 584.617C540.908 589.603 532.033 591.563 523.517 590.893C519.624 590.587 515.702 589.847 511.796 589.853C503.801 589.866 496.746 591.686 488.65 590.238C476.886 588.133 469.84 581.71 463.188 572.197C461.002 569.07 458.747 565.43 455.957 562.801C453.429 560.42 449.173 558.387 445.877 557.308C445.014 557.025 442.805 556.653 442.153 556.196C441.887 556.009 441.781 555.664 441.595 555.399L440.582 554.946L440.504 554.454C441.173 553.683 441.76 553.145 442.772 552.901C445.572 552.228 449.026 552.369 451.92 552.081C460.372 551.24 470.082 550.134 478.06 547.201Z"/>
	<path fill="#D5D5D4" d="M489.26 555.531C490.984 556.481 492.731 557.503 494.546 558.267C497.986 559.717 504.526 560.813 505.874 564.858C506.604 567.05 505.728 569.845 505.122 571.964C502.782 568.965 498.682 568.272 495.459 566.437C491.592 564.235 490.361 559.504 489.26 555.531Z"/>
	<path fill="#FEFEFE" d="M506.649 513.672C515.898 512.421 526.313 514.108 534.331 518.94C528.633 518.326 522.835 518.333 517.108 518.159C507.185 518.165 497.366 518.442 487.477 519.31C493.793 516.451 499.763 514.582 506.649 513.672Z"/>
	<defs>
		<linearGradient id="gradient_3" gradientUnits="userSpaceOnUse" x1="536.64325" y1="556.13385" x2="549.26215" y2="575.42804">
			<stop offset="0" stop-color="#BDBCBC"/>
			<stop offset="1" stop-color="white"/>
		</linearGradient>
	</defs>
	<path fill="url(#gradient_3)" d="M537.577 555.377C542.731 558.094 557.509 554.845 563.573 554.583L564.18 554.562C562.713 554.976 561.996 554.969 560.991 556.149C562.204 559.069 569.05 561.223 568.014 564.403L567.285 564.512C553.984 566.611 549.572 581.389 532.703 579.989C529.339 579.71 525.575 578.686 522.843 576.63C519.837 574.367 518.394 571.365 517.588 567.775C517.53 566.517 517.375 565.243 517.797 564.032C518.905 560.847 528.51 559.27 531.58 558.163C533.454 557.487 535.245 556.542 537.018 555.64L537.577 555.377Z"/>
	<path fill="#D5D5D4" d="M517.588 567.775C517.53 566.517 517.375 565.243 517.797 564.032C518.905 560.847 528.51 559.27 531.58 558.163C533.454 557.487 535.245 556.542 537.018 555.64L537.974 557.037C536.607 561.962 532.154 565.345 527.876 567.745L527.312 568.055C524.056 567.849 520.851 567.705 517.588 567.775Z"/>
	<defs>
		<linearGradient id="gradient_4" gradientUnits="userSpaceOnUse" x1="483.12866" y1="550.84644" x2="460.80328" y2="574.03168">
			<stop offset="0" stop-color="#D1D0D0"/>
			<stop offset="1" stop-color="white"/>
		</linearGradient>
	</defs>
	<path fill="url(#gradient_4)" d="M478.06 547.201C481.674 550.144 485.315 553.037 489.26 555.531C490.361 559.504 491.592 564.235 495.459 566.437C498.682 568.272 502.782 568.965 505.122 571.964C504.107 573.666 502.879 575.113 501.271 576.282C497.868 578.758 493.917 579.674 489.762 579.804C473.403 580.317 467.964 566.897 455.747 559.709C451.219 557.045 446.745 556.1 441.595 555.399L440.582 554.946L440.504 554.454C441.173 553.683 441.76 553.145 442.772 552.901C445.572 552.228 449.026 552.369 451.92 552.081C460.372 551.24 470.082 550.134 478.06 547.201Z"/>
	<path fill="#000100" d="M587.61 396.197C590.085 396.088 592.673 396.206 595.135 396.477C616.497 398.826 633.532 413.541 646.447 429.712C654.395 439.664 668.688 458.78 672.389 470.559C673.65 474.57 673.91 477.924 673.431 482.083C670.177 477.271 666.837 473.435 662.478 469.58C664.018 476.92 663.813 484.603 662.07 491.891C658.704 505.966 649.254 516.706 637.083 524.091C632.921 526.243 628.363 527.801 623.722 528.482C614.318 529.86 604.164 527.46 596.536 521.683C591.002 517.491 586.149 512.233 581.999 506.691C572.904 494.544 543.632 445.311 542.267 431.977C541.627 425.728 546.869 418.288 550.748 413.716C560.158 402.622 573.374 397.404 587.61 396.197Z"/>
	<path fill="#FEFEFE" d="M612.607 433.398C614.773 437.63 614.68 443.371 613.241 447.81C611.31 453.769 606.709 458.87 601.087 461.592C594.952 464.563 587.738 464.67 581.405 462.244C574.274 459.512 569.622 454.23 566.487 447.446C566.145 446.454 565.928 445.469 565.701 444.446C567.777 448.06 569.692 452.37 572.857 455.162C578.015 459.714 584.746 461.782 591.564 461.15C597.943 460.559 603.879 457.518 607.824 452.431C612.153 446.85 613.523 440.283 612.607 433.398Z"/>
	<path fill="#FEFEFE" d="M594.007 425.535C595.458 425.502 596.998 425.458 598.418 425.796C601.294 426.482 603.947 428.466 605.369 431.061C606.604 433.315 606.919 435.965 606.195 438.436C605.155 441.982 602.634 443.799 599.517 445.463C598.004 445.605 596.433 445.803 594.939 445.433C592.315 444.783 589.921 443.019 588.555 440.688C587.163 438.314 586.834 435.51 587.565 432.862C588.553 429.279 590.825 427.232 594.007 425.535Z"/>
	<path fill="#000100" d="M430.754 396.206C440.202 396.009 448.987 397.559 457.362 402.115C466.462 407.064 478.004 418.741 480.626 428.937C482.988 438.118 466.829 472.678 461.301 482.128C449.815 501.763 431.431 525.349 408.579 531.377C407.069 531.598 405.556 531.805 404.027 531.796C394.309 531.735 384.77 526.747 378.007 519.982C362.515 504.486 357.872 481.737 357.747 460.611C365.891 446.798 374.407 432.482 384.867 420.268C397.165 405.905 411.806 397.632 430.754 396.206Z"/>
	<path fill="#FEFEFE" d="M416.275 429.92C416.299 430.753 416.375 430.491 416.131 431.17C415.726 432.294 415.319 433.394 414.995 434.546C413.127 441.181 412.835 446.337 416.495 452.536C419.499 457.623 424.613 461.304 430.347 462.669C436.074 464.031 442.417 462.898 447.315 459.631C453.978 455.187 455.732 449.328 457.265 441.962L457.482 443.131C457.545 447.01 456.821 450.526 455.056 454.008C452.384 459.28 447.575 463.234 441.94 464.97C436.158 466.751 430.018 466.118 424.676 463.305C419.205 460.423 415.04 455.28 413.368 449.324C411.491 442.634 412.963 435.852 416.275 429.92Z"/>
	<path fill="#FEFEFE" d="M437.817 425.559C439.26 425.479 440.802 425.64 442.167 426.125C445.082 427.161 447.474 429.15 448.667 432.04C449.746 434.655 449.704 437.546 448.514 440.113C446.876 443.642 444.162 444.92 440.664 446.191C438.974 446.196 437.296 446.131 435.712 445.474C432.887 444.303 430.54 442.101 429.44 439.22C428.493 436.74 428.56 434.018 429.707 431.622C431.374 428.143 434.327 426.717 437.817 425.559Z"/>
</svg>
